<svg xmlns="http://www.w3.org/2000/svg" viewBox="0 0 512 512"><rect width="512" height="512" rx="113" fill="#0c0c0b"/><path fill="#e05c2a" d="M94.2 319.7V191.5Q94.2 156.3 115.8 135.3Q137.3 114.4 172.9 114.4Q208.9 114.4 230.5 135.3Q252 156.3 252 191.5V195.9Q252 197.8 250.7 199.2Q249.3 200.6 247.3 200.6L201 202.6Q196.3 202.6 196.3 198.2V188Q196.3 176.5 189.9 169.4Q183.6 162.2 172.9 162.2Q162.6 162.2 156.3 169.4Q150 176.5 150 188V324.4Q150 335.9 156.3 342.8Q162.6 349.8 172.9 349.8Q183.6 349.8 189.9 342.8Q196.3 335.9 196.3 324.4V313.8Q196.3 311.8 197.6 310.4Q199 309 201 309L247.3 311Q249.3 311 250.7 312.4Q252 313.8 252 315.7V319.7Q252 355.3 230.3 376.5Q208.5 397.6 172.9 397.6Q137.3 397.6 115.8 376.5Q94.2 355.3 94.2 319.7ZM261.9 323.3V296Q261.9 294 263.3 292.6Q264.7 291.2 266.7 291.2H313Q314.9 291.2 316.3 292.6Q317.7 294 317.7 296V324Q317.7 335.5 323.7 342.6Q329.6 349.8 339.5 349.8Q349.8 349.8 355.9 342.6Q362 335.5 362 324V122.3Q362 120.3 363.4 118.9Q364.8 117.5 366.8 117.5H413.1Q415 117.5 416.4 118.9Q417.8 120.3 417.8 122.3V323.3Q417.8 356.9 396.2 377.3Q374.7 397.6 339.5 397.6Q304.7 397.6 283.3 377.3Q261.9 356.9 261.9 323.3Z"/></svg>
